<?xml version="1.0" encoding="utf-8"?>
<!-- Generator: Adobe Illustrator 16.0.0, SVG Export Plug-In . SVG Version: 6.00 Build 0)  -->
<!DOCTYPE svg PUBLIC "-//W3C//DTD SVG 1.1//EN" "http://www.w3.org/Graphics/SVG/1.1/DTD/svg11.dtd">
<svg version="1.1" id="Layer_1" xmlns="http://www.w3.org/2000/svg" xmlns:xlink="http://www.w3.org/1999/xlink" x="0px" y="0px"
	 width="1920px" height="1080px" viewBox="0 0 1920 1080" enable-background="new 0 0 1920 1080" xml:space="preserve">
<path fill="none" stroke="#000000" stroke-miterlimit="10" d="M472.21,612.211c-44.062-24.656-89.661,49.35-83.846,88.684
	c39.327,4.074,113.827-63.277,104.51-106.74c-1.528,0.064-5.579,0.121-6.982-0.137c-4.228,12.02-1.753,21.807-2.72,34.496
	c-2.535,33.271-17.103,63.633-29.182,94.564c-14.441,36.982-26.716,75.717-43.324,111.713
	c-12.037,26.088-33.825,51.797-38.505,80.652c75.043-82.547,171.539-152.715,256.764-225.148
	c66.976-56.922,141.253-109.928,203.159-172.37c16.575-16.718,30.92-34.563,40.17-56.068c-29.218,35.6-70.771,61.649-103.83,94.283
	c42.842-48.326,143.267-100.274,150.584-170.125c-36.619,22.442-56.165,76.216-75.493,112.999
	c-21.696,41.288-62.201,94.55-52.276,143.951c39.233-0.031,74.537-40.426,101.752-64.567c30.441-27.003,65.757-56.159,73.878-98.276
	c-14.56,33.427-58.36,173.588,20.284,105.388c37.39-32.423,74.778-85.817,74.354-137.083
	c-32.268,32.429-42.456,106.861-35.844,150.106c42.41-39.428,74.219-93.725,99.11-145.486
	c-32.36,56.455-48.537,120.224-75.395,179.182c15.269-36,47.999-62.01,57.216-100.935c3.801,81.284-65.809,149.748-80.338,228.73
	c27.934-30.396,66.483-45.524,101.783-65.498c47.143-26.675,94.787-52.45,141.715-79.505
	c93.098-53.672,179.73-114.792,256.479-190.37c42.146-41.501,81.777-85.854,117.359-133.102
	c-98.807,9.099-186.904,43.732-282.042,68.609c-93.634,24.483-188.396,45.3-282.644,67.288
	c-94.382,22.02-187.185,47.076-278.937,78.418c-93.829,32.051-172.962,81.815-260.886,125.754
	c-85.437,42.695-156.997,81.28-229.22,144.465c48.406,10.139,99.889-5.386,146.461-18.153
	c51.46-14.108,103.426-25.585,155.989-34.926c105.457-18.74,213.901-28.804,318.418-51.229
	c-5.845-30.766-55.033-59.904-78.167-77.887c-33.791-26.267-69.146-50.438-103.117-76.465
	c-49.474-37.905-128.204-97.751-124.633-168.466c3.579,90.417-17.892,182.69-18.426,273.883
	c-0.56,95.706-8.384,195.032,0.747,290.294c32.088-44.259,43.845-110.24,62.14-161.378c20.933-58.513,39.081-118.009,61.396-176.03
	c43.451-112.979,101.147-221.145,128.378-339.829"/>
</svg>
